<svg width="50" height="50" viewBox="0 0 50 50" fill="none" xmlns="http://www.w3.org/2000/svg">
<path d="M5.72916 42.1875H44.2708C46.2844 42.1875 47.9167 40.5552 47.9167 38.5417V11.4583C47.9167 9.44479 46.2844 7.8125 44.2708 7.8125H5.72916C3.71562 7.8125 2.08333 9.44479 2.08333 11.4583V38.5417C2.08333 40.5552 3.71562 42.1875 5.72916 42.1875Z" fill="#E0E0E0"/>
<path d="M27.0833 42.1875H44.2708C46.2844 42.1875 47.9167 40.5552 47.9167 38.5417V11.4583C47.9167 9.44479 46.2844 7.8125 44.2708 7.8125H5.72916C3.71562 7.8125 2.08333 9.44479 2.08333 11.4583L27.0833 42.1875Z" fill="#D9D9D9"/>
<path d="M7.02605 42.1875H44.2708C46.2844 42.1875 47.9167 40.5552 47.9167 38.5417V11.9792L7.02605 42.1875Z" fill="#EEEEEE"/>
<path d="M26.8177 42.1875H44.2708C46.2844 42.1875 47.9167 40.5552 47.9167 38.5417V11.9792L19.5531 32.9333L26.8177 42.1875Z" fill="#E0E0E0"/>
<path d="M44.2708 9.89584H5.72916C3.71562 9.89584 2.08333 9.4448 2.08333 11.4583V38.5417C2.08333 40.5552 3.71562 42.1875 5.72916 42.1875H7.29166V12.5H42.7083V42.1875H44.2708C46.2844 42.1875 47.9167 40.5552 47.9167 38.5417V11.4583C47.9167 9.4448 46.2844 9.89584 44.2708 9.89584Z" fill="#CA3737"/>
<path d="M44.2708 7.8125H25H5.72916C3.71562 7.8125 2.08333 9.4125 2.08333 11.4583C2.08333 12.7146 3.66458 13.8104 3.66458 13.8104L25 28.9125L46.3354 13.8115C46.3354 13.8115 47.9167 12.7146 47.9167 11.4594C47.9167 9.4125 46.2844 7.8125 44.2708 7.8125Z" fill="#F5F5F5"/>
<path d="M45.0479 7.89792L25 21.875L4.95208 7.89792C3.3125 8.24896 2.08333 9.68438 2.08333 11.4583C2.08333 12.7146 3.66458 13.8104 3.66458 13.8104L25 28.9125L46.3354 13.8115C46.3354 13.8115 47.9167 12.7146 47.9167 11.4594C47.9167 9.68438 46.6875 8.24896 45.0479 7.89792Z" fill="#E84F4B"/>
</svg>
