<?xml version="1.0" encoding="UTF-8"?>
<svg width="800px" height="800px" viewBox="0 0 800 800" version="1.1" xmlns="http://www.w3.org/2000/svg" xmlns:xlink="http://www.w3.org/1999/xlink">
    <!-- Generator: Sketch 58 (84663) - https://sketch.com -->
    <title>画板</title>
    <desc>Created with Sketch.</desc>
    <g id="Page-1" stroke="none" stroke-width="1" fill="none" fill-rule="evenodd">
        <g id="画板备份-8" transform="translate(-100.000000, -100.000000)" fill="#FFFFFF">
            <path d="M500,100 C610.457455,100 710.457864,144.771934 782.843705,217.15828 L606.067009,393.934975 C578.92227,366.789731 541.421861,350 500,350 C472.568256,350 446.856378,357.36362 424.733184,370.22204 C450.127869,372.605934 470,393.982275 470,420 C470,447.614237 447.614237,470 420,470 C393.982956,470 372.607054,450.128911 370.221349,424.735788 C361.516686,439.711375 355.330407,456.332481 352.242007,474.018389 C289.900769,503.679998 252.187297,536.076226 258.518543,559.704761 C268.52447,597.047389 384.750807,598.350261 518.117333,562.614808 C651.483859,526.879355 751.487383,467.637866 741.481457,430.295239 C736.530953,411.819707 705.579325,402.166154 659.414985,401.455514 C732.440378,397.022966 783.068204,407.313929 789.777748,432.354286 C801.213093,475.031575 680.745355,544.391523 520.705524,587.274066 C363.545378,629.385 226.666906,630.303184 210.962831,589.907848 C209.018768,596.108264 208.723226,602.051271 210.222252,607.645714 C220.691896,646.718955 315.474781,656.747497 436.666395,636.013539 C455.908365,644.988173 477.368895,650 500,650 C541.421356,650 578.921356,633.210678 606.066017,606.066017 L782.842712,782.842712 C710.45695,855.228475 610.45695,900 500,900 C279.0861,900 100,720.9139 100,500 C100,279.0861 279.0861,100 500,100 Z" id="形状结合"></path>
        </g>
    </g>
</svg>