<svg width="50" height="50" viewBox="0 0 50 50" fill="none" xmlns="http://www.w3.org/2000/svg">
<path d="M18.75 6.25C9.58333 6.25 2.08333 12.5 2.08333 20.3125C2.08333 24.7917 4.47916 28.6458 8.33333 31.25L6.24999 37.5L12.8125 33.4375C14.5833 34.0625 16.6667 34.375 18.75 34.375C27.9167 34.375 35.4167 28.125 35.4167 20.3125C35.4167 12.5 27.9167 6.25 18.75 6.25Z" fill="#8BC34A"/>
<path d="M20.8333 30.2083C20.8333 23.8542 26.875 18.75 34.375 18.75C34.6875 18.75 35 18.75 35.3125 18.75C35.2083 18.0208 35 17.2917 34.7917 16.6667C34.6875 16.6667 34.4792 16.6667 34.375 16.6667C25.7292 16.6667 18.75 22.7083 18.75 30.2083C18.75 31.6667 19.0625 33.0208 19.4792 34.375C20.2083 34.375 20.9375 34.2708 21.6667 34.1667C21.1458 32.9167 20.8333 31.5625 20.8333 30.2083Z" fill="#7CB342"/>
<path d="M47.9167 30.2083C47.9167 23.8542 41.875 18.75 34.375 18.75C26.875 18.75 20.8333 23.8542 20.8333 30.2083C20.8333 36.5625 26.875 41.6667 34.375 41.6667C36.25 41.6667 38.0208 41.3542 39.5833 40.8333L44.7917 43.75L43.3333 38.75C46.1458 36.6667 47.9167 33.6458 47.9167 30.2083Z" fill="#CFD8DC"/>
<path d="M14.5833 15.625C14.5833 16.7708 13.6458 17.7083 12.5 17.7083C11.3542 17.7083 10.4167 16.7708 10.4167 15.625C10.4167 14.4792 11.3542 13.5417 12.5 13.5417C13.6458 13.5417 14.5833 14.4792 14.5833 15.625ZM25 13.5417C23.8542 13.5417 22.9167 14.4792 22.9167 15.625C22.9167 16.7708 23.8542 17.7083 25 17.7083C26.1458 17.7083 27.0833 16.7708 27.0833 15.625C27.0833 14.4792 26.1458 13.5417 25 13.5417Z" fill="#33691E"/>
<path d="M31.25 27.6042C31.25 28.4375 30.5208 29.1667 29.6875 29.1667C28.8542 29.1667 28.125 28.4375 28.125 27.6042C28.125 26.7708 28.8542 26.0417 29.6875 26.0417C30.5208 26.0417 31.25 26.7708 31.25 27.6042ZM39.0625 26.0417C38.2292 26.0417 37.5 26.7708 37.5 27.6042C37.5 28.4375 38.2292 29.1667 39.0625 29.1667C39.8958 29.1667 40.625 28.4375 40.625 27.6042C40.625 26.7708 39.8958 26.0417 39.0625 26.0417Z" fill="#546E7A"/>
</svg>
